:SAMPLES-PER-SECOND 30
:FULLY-SPECIFIED
:DEGREES
527
root  51.4336 35.1425 -0.159581 -67.9824 82.8289 -87.5525
RightUpLeg  -53.2472 -2.63379 -1.42723
RightLeg  35.4591 2.97344 2.02545
RightFoot  2.65838 -0.699957 5.83818
RightToes  -2.21189e-009 0 -3.6325e-017
Spine  77.604 0.844187 4.86591
Spine1  -6.25131 5.09716 1.37728
HEad  -60.7963 31.3385 11.7501
LeftShoulder1  0.199126 -14.4307 8.38645
LeftArm  -76.6596 -56.4462 13.8638
LeftForeArm  -29.9964 -13.5857 6.386
LeftHand  -0.0464701 5.85543 -2.69314
RightShoulder  0.0115956 0.557171 -9.41535
RightArm  -93.1512 62.9505 -56.4607
RightForeArm  -50.6314 -4.00291 -1.75383
RightHand  0.326994 7.29827 2.60173
LeftUpLeg  -60.3874 20.2833 -2.29203
LeftLeg  45.384 -3.99252 -3.90866
LeftFoot  -2.25384 -0.553975 7.13916
LeftToes  -4.03379e-008 1.61488e-010 -5.81581e-011
528
root  51.2669 35.4247 -0.25362 -67.2906 83.1199 -86.777
RightUpLeg  -51.6831 -2.44689 -2.00208
RightLeg  32.3096 2.8755 1.71499
RightFoot  3.63143 -0.787267 6.17966
RightToes  -2.21189e-009 0 -3.6325e-017
Spine  75.5669 0.50183 4.78382
Spine1  -4.59656 4.62225 0.782457
HEad  -60.9314 31.7267 11.7079
LeftShoulder1  0.261275 -14.4308 7.9899
LeftArm  -77.5008 -56.3445 11.8717
LeftForeArm  -26.2516 -15.1942 4.84797
LeftHand  -0.0644193 6.36166 -3.06594
RightShoulder  -0.0294204 0.894932 -10.5128
RightArm  -86.5883 63.7425 -46.7127
RightForeArm  -51.4158 -3.89063 -2.62681
RightHand  0.194175 7.33723 1.40087
LeftUpLeg  -59.0895 20.1794 -2.81952
LeftLeg  42.7443 -4.20605 -3.75437
LeftFoot  -1.41 -0.614181 7.11556
LeftToes  -4.03379e-008 1.61488e-010 -5.81581e-011
529
root  51.0633 35.7443 -0.323991 -64.7499 83.8059 -83.0842
RightUpLeg  -49.1729 -2.48983 -2.77744
RightLeg  29.239 3.04141 1.61132
RightFoot  4.88444 -0.821269 5.98817
RightToes  -2.21189e-009 0 -3.6325e-017
Spine  73.9527 0.673956 4.25052
Spine1  -2.54005 4.45964 0.458871
HEad  -61.0176 31.4402 11.7301
LeftShoulder1  0.402367 -14.2484 7.05928
LeftArm  -80.9324 -56.8828 8.43744
LeftForeArm  -19.3199 -17.6307 2.21722
LeftHand  -0.0220031 5.07041 -2.55479
RightShoulder  -0.0864417 1.55036 -11.6859
RightArm  -77.7249 63.2326 -34.5774
RightForeArm  -50.792 -2.56447 -3.4426
RightHand  0.234695 9.17017 1.47417
LeftUpLeg  -56.473 20.3879 -3.46871
LeftLeg  39.8374 -4.62413 -3.73525
LeftFoot  -0.0837583 -0.765697 7.76873
LeftToes  -4.03379e-008 1.61488e-010 -5.81581e-011
530
root  50.8354 35.9826 -0.370116 -65.1477 84.2983 -82.3115
RightUpLeg  -46.8652 -2.71082 -3.29748
RightLeg  26.6681 3.22636 1.53653
RightFoot  5.76994 -0.901718 6.25008
RightToes  -2.21189e-009 0 -3.6325e-017
Spine  72.1507 0.893089 4.20415
Spine1  -1.09254 4.4793 0.475217
HEad  -60.9015 30.8533 11.7286
LeftShoulder1  0.639452 -13.8693 5.44929
LeftArm  -82.9114 -58.3773 3.46159
LeftForeArm  -11.7854 -19.8465 -0.975945
LeftHand  -0.0335049 5.33049 -2.03317
RightShoulder  -0.165589 2.72532 -12.7787
RightArm  -66.6987 60.7288 -19.4292
RightForeArm  -47.887 3.65198 -3.61242
RightHand  0.293881 8.90417 1.98796
LeftUpLeg  -54.1314 20.5945 -3.85789
LeftLeg  37.378 -5.1434 -3.83792
LeftFoot  -0.0161194 -0.616762 6.20183
LeftToes  -4.03379e-008 1.61488e-010 -5.81581e-011
531
root  50.6049 36.1741 -0.390827 -63.6094 85.0165 -79.2215
RightUpLeg  -44.4957 -3.03986 -4.04147
RightLeg  24.6918 3.80607 1.688
RightFoot  6.49067 -0.970522 6.46992
RightToes  -2.21189e-009 0 -3.6325e-017
Spine  70.7616 -0.0308972 3.9612
Spine1  -0.760546 3.82381 -2.17991
HEad  -59.9767 29.6033 12.0431
LeftShoulder1  0.853137 -13.1963 3.80475
LeftArm  -78.9182 -59.0355 -2.8262
LeftForeArm  -6.85027 -21.9422 -3.9735
LeftHand  -0.00148535 3.43279 -1.00351
RightShoulder  -0.218806 3.27749 -13.4519
RightArm  -58.4855 58.6138 -2.20914
RightForeArm  -43.9666 11.1021 -3.51144
RightHand  0.18084 9.08384 1.04648
LeftUpLeg  -51.4165 20.6802 -4.28535
LeftLeg  34.9559 -5.21615 -3.54105
LeftFoot  1.16356 -0.810072 7.3218
LeftToes  -4.03379e-008 1.61488e-010 -5.81581e-011
